<svg id="visual" viewBox="0 0 960 540" width="960" height="540" xmlns="http://www.w3.org/2000/svg" xmlns:xlink="http://www.w3.org/1999/xlink" version="1.1"><path d="M0 284L14.5 296.7C29 309.3 58 334.7 87.2 347.2C116.3 359.7 145.7 359.3 174.8 351.8C204 344.3 233 329.7 262 323.8C291 318 320 321 349 336.7C378 352.3 407 380.7 436.2 383.5C465.3 386.3 494.7 363.7 523.8 360.3C553 357 582 373 611 379.8C640 386.7 669 384.3 698 365.7C727 347 756 312 785.2 299.8C814.3 287.7 843.7 298.3 872.8 312.8C902 327.3 931 345.7 945.5 354.8L960 364L960 541L945.5 541C931 541 902 541 872.8 541C843.7 541 814.3 541 785.2 541C756 541 727 541 698 541C669 541 640 541 611 541C582 541 553 541 523.8 541C494.7 541 465.3 541 436.2 541C407 541 378 541 349 541C320 541 291 541 262 541C233 541 204 541 174.8 541C145.7 541 116.3 541 87.2 541C58 541 29 541 14.5 541L0 541Z" fill="#ffffff" stroke-linecap="round" stroke-linejoin="miter"></path></svg>